<svg id="Layer_1" data-name="Layer 1" xmlns="http://www.w3.org/2000/svg" viewBox="0 0 200 200"><defs><style>.cls-1{fill:#fff;}</style></defs><title>weather</title><path class="cls-1" d="M77.52,5.26a4.72,4.72,0,0,0-1.11.17C34.74,17.43,6,55.11,6,97.93c0,53.24,43.93,96.43,97.91,96.43h0c40,0,76-24,90.83-60.63a4.73,4.73,0,0,0-5.7-6.32A89.86,89.86,0,0,1,164.18,131C115.23,131,75.72,92,75.72,44h0a85.71,85.71,0,0,1,6.37-32.23,4.73,4.73,0,0,0-4.57-6.51ZM70.2,18.68A94.67,94.67,0,0,0,66.26,44c0,53.24,43.93,96.43,97.91,96.43h0c5.8,0,11.44-1.44,17.14-2.46-15.16,28.29-44.38,46.91-77.44,46.94-48.95,0-88.45-38.9-88.46-86.95h0c0-35.3,22.22-65.83,54.77-79.25Z"/></svg>