<svg id="Layer_1" data-name="Layer 1" xmlns="http://www.w3.org/2000/svg" viewBox="0 0 200 200"><defs><style>.cls-1{fill:#fff;}</style></defs><title>weather</title><path class="cls-1" d="M114.41,32.88c15.07,5.59,26,18.23,30.5,33.29,1.5,0,2.9-.16,4.26-.25h0a43.45,43.45,0,0,1,13,2.47,49.72,49.72,0,0,1-13.31,96.46c-20.43.86-41.14.38-58.75.37a39.79,39.79,0,0,1-35.21-25.08A38.13,38.13,0,0,1,53,133.48H42.48A39.85,39.85,0,0,1,7.35,107.38a41,41,0,0,1,9.3-43.16c10.67-10.69,26.13-12,39.8-7.44C66,40.92,82.52,30.34,100.1,30.46a46.15,46.15,0,0,1,14.31,2.42Zm-13.23,5.36h-.09C85.79,37.66,70.21,47.5,62,62.55a4,4,0,0,1-.75,1l-.63.6a4,4,0,0,1-4.25.81c-12-4.91-25.28-4-34.1,4.88a33.07,33.07,0,0,0-7.47,34.8,31.83,31.83,0,0,0,28.05,20.92h9.46s0-.08,0-.12c0-1.17.11-2.34.25-3.5l0-.19A38.46,38.46,0,0,1,55.52,111a40.86,40.86,0,0,1,8.73-12.55C75,88.17,90.36,86.91,104,91.3a54.91,54.91,0,0,1,24.53-21.16,61.75,61.75,0,0,1,8.22-2.78c-4-12.41-12.86-22.49-25.14-27a33.79,33.79,0,0,0-10.46-2.08Zm47.71,35.62a28.4,28.4,0,0,0-6.39.4,39,39,0,0,0-9.33,2.42,50.73,50.73,0,0,0-23.55,20.49c-1.66,2.67-2.9,3.27-5.69,2.4C92.35,96,80.18,95.7,71.42,102.75q-.88.7-1.7,1.5a.49.49,0,0,1-.07.08c-6.33,6.16-9.12,14.12-9.32,22.68,0,.65,0,1.3.07,2a30.35,30.35,0,0,0,1.92,8.33,31.8,31.8,0,0,0,28.15,20c18.85,0,37.76.08,56.58,0A41.94,41.94,0,0,0,159.5,75.88a51.39,51.39,0,0,0-10.61-2Z"/></svg>