<svg id="Layer_1" data-name="Layer 1" xmlns="http://www.w3.org/2000/svg" viewBox="0 0 200 200"><defs><style>.cls-1{fill:#fff;}</style></defs><title>weather</title><path class="cls-1" d="M114.68,31.65c15.35,5.7,26.46,18.58,31.07,33.92,1.52,0,3-.16,4.35-.25h0a44.27,44.27,0,0,1,13.24,2.52,50.66,50.66,0,0,1-13.56,98.28c-20.81.88-41.92.39-59.86.37A40.54,40.54,0,0,1,54,140.93a38.85,38.85,0,0,1-1.92-6.78H41.39A40.6,40.6,0,0,1,5.6,107.56a41.75,41.75,0,0,1,9.47-44C26,52.69,41.71,51.32,55.63,56c9.72-16.16,26.56-26.94,44.47-26.82a47,47,0,0,1,14.58,2.46ZM101.2,37.11h-.09c-15.59-.59-31.47,9.44-39.82,24.78a4,4,0,0,1-.76,1l-.64.61a4.06,4.06,0,0,1-4.33.82c-12.25-5-25.76-4-34.75,5a33.69,33.69,0,0,0-7.61,35.46A32.43,32.43,0,0,0,41.78,126h9.64s0-.08,0-.13c0-1.19.12-2.38.25-3.56l0-.19a39.18,39.18,0,0,1,3-10.93,41.63,41.63,0,0,1,8.9-12.79C74.5,88,90.18,86.7,104.1,91.17a55.94,55.94,0,0,1,25-21.56,62.92,62.92,0,0,1,8.37-2.83c-4.1-12.64-13.1-22.92-25.61-27.56a34.43,34.43,0,0,0-10.65-2.12ZM149.81,73.4a28.94,28.94,0,0,0-6.51.41,39.72,39.72,0,0,0-9.51,2.46,51.69,51.69,0,0,0-24,20.88c-1.69,2.72-3,3.33-5.8,2.44-11.81-3.68-24.21-3.93-33.13,3.25q-.89.72-1.73,1.52a.5.5,0,0,1-.07.08c-6.45,6.28-9.29,14.39-9.5,23.11,0,.66,0,1.33.07,2a30.92,30.92,0,0,0,2,8.48,32.41,32.41,0,0,0,28.68,20.39c19.2,0,38.48.08,57.64,0a42.73,42.73,0,0,0,12.7-82.91,52.36,52.36,0,0,0-10.81-2.06Z"/></svg>