<svg id="Layer_1" data-name="Layer 1" xmlns="http://www.w3.org/2000/svg" viewBox="0 0 200 200"><defs><style>.cls-1{font-size:22px;fill:#231f20;font-family:MyriadPro-Regular, Myriad Pro;}.cls-2{letter-spacing:-0.01em;}.cls-3{letter-spacing:0em;}.cls-4{fill:#fff;}</style></defs><title>weather</title><text class="cls-1" transform="translate(32.81 -29.78)">chan<tspan class="cls-2" x="44.88" y="0">c</tspan><tspan x="54.6" y="0">ets</tspan><tspan class="cls-2" x="81.62" y="0">t</tspan><tspan x="88.77" y="0">o</tspan><tspan class="cls-3" x="100.85" y="0">r</tspan><tspan x="108.13" y="0">ms</tspan></text><path class="cls-4" d="M77.52,5.26a4.72,4.72,0,0,0-1.11.17C34.74,17.43,6,55.11,6,97.93c0,53.24,43.93,96.43,97.91,96.43h0c40,0,76-24,90.83-60.63a4.73,4.73,0,0,0-5.7-6.32A89.86,89.86,0,0,1,164.18,131C115.23,131,75.72,92,75.72,44h0a85.71,85.71,0,0,1,6.37-32.23,4.73,4.73,0,0,0-4.57-6.51ZM70.2,18.68A94.67,94.67,0,0,0,66.26,44c0,53.24,43.93,96.43,97.91,96.43h0c5.8,0,11.44-1.44,17.14-2.46-15.16,28.29-44.38,46.91-77.44,46.94-48.95,0-88.45-38.9-88.46-86.95h0c0-35.3,22.22-65.83,54.77-79.25Z"/></svg>