<svg id="Layer_1" data-name="Layer 1" xmlns="http://www.w3.org/2000/svg" viewBox="0 0 200 200"><defs><style>.cls-1{fill:#fff;}</style></defs><title>weather</title><path class="cls-1" d="M29.22,106.25a4.17,4.17,0,0,0-4.1,4.23h0v29a4.16,4.16,0,1,0,8.33.12s0-.08,0-.12v-29a4.17,4.17,0,0,0-4.1-4.23Z"/><path class="cls-1" d="M16.71,114.59A4.17,4.17,0,0,0,15,122.51l24.88,12.44a4.17,4.17,0,0,0,3.94-7.34l-.23-.11L18.71,115.05A4.16,4.16,0,0,0,16.71,114.59Z"/><path class="cls-1" d="M41.75,114.59a4.17,4.17,0,0,0-1.88.46L15,127.5a4.17,4.17,0,0,0,3.49,7.57l.23-.11,24.88-12.44a4.17,4.17,0,0,0-1.84-7.92Z"/><path class="cls-1" d="M71,110.42a4.16,4.16,0,0,0-3.71,2.07L54.9,133.22A4.17,4.17,0,1,0,62,137.6l.05-.09,12.43-20.73A4.17,4.17,0,0,0,71,110.42Z"/><path class="cls-1" d="M100,106.25a4.17,4.17,0,0,0-4.1,4.23h0v29a4.16,4.16,0,1,0,8.33.12s0-.08,0-.12v-29a4.17,4.17,0,0,0-4.1-4.23Z"/><path class="cls-1" d="M87.49,114.59a4.17,4.17,0,0,0-1.72,7.92l24.88,12.44a4.17,4.17,0,0,0,3.94-7.34l-.23-.11L89.5,115.05A4.16,4.16,0,0,0,87.49,114.59Z"/><path class="cls-1" d="M112.54,114.59a4.17,4.17,0,0,0-1.88.46L85.78,127.5a4.17,4.17,0,0,0,3.49,7.57l.23-.11,24.88-12.44a4.17,4.17,0,0,0-1.84-7.92Z"/><path class="cls-1" d="M141.82,110.42a4.16,4.16,0,0,0-3.71,2.07l-12.43,20.73a4.17,4.17,0,1,0,7.09,4.38l.05-.09,12.43-20.73a4.17,4.17,0,0,0-3.43-6.36Z"/><path class="cls-1" d="M170.8,106.25a4.17,4.17,0,0,0-4.1,4.23h0v29a4.16,4.16,0,1,0,8.33.12s0-.08,0-.12v-29a4.17,4.17,0,0,0-4.1-4.23Z"/><path class="cls-1" d="M158.28,114.59a4.17,4.17,0,0,0-1.72,7.92l24.88,12.44a4.17,4.17,0,0,0,3.94-7.34l-.23-.11-24.88-12.44A4.16,4.16,0,0,0,158.28,114.59Z"/><path class="cls-1" d="M183.32,114.59a4.17,4.17,0,0,0-1.88.46L156.57,127.5a4.17,4.17,0,0,0,3.49,7.57l.23-.11,24.88-12.44a4.17,4.17,0,0,0-1.84-7.92Z"/><path class="cls-1" d="M37.72,152.09A4.16,4.16,0,0,0,34,154.15L21.59,174.89a4.17,4.17,0,1,0,7.09,4.38l.05-.09,12.43-20.73a4.17,4.17,0,0,0-3.43-6.35Z"/><path class="cls-1" d="M66.7,147.91a4.17,4.17,0,0,0-4.1,4.23h0v29a4.16,4.16,0,1,0,8.33.12s0-.08,0-.12v-29a4.17,4.17,0,0,0-4.1-4.23Z"/><path class="cls-1" d="M54.18,156.25a4.17,4.17,0,0,0-1.72,7.92l24.88,12.44a4.17,4.17,0,0,0,3.94-7.34l-.23-.11L56.18,156.72A4.16,4.16,0,0,0,54.18,156.25Z"/><path class="cls-1" d="M79.22,156.25a4.17,4.17,0,0,0-1.88.46L52.47,169.16A4.17,4.17,0,0,0,56,176.72l.23-.11,24.88-12.44a4.17,4.17,0,0,0-1.84-7.92Z"/><path class="cls-1" d="M108.51,152.09a4.16,4.16,0,0,0-3.71,2.07L92.37,174.89a4.17,4.17,0,1,0,7.09,4.38l.05-.09,12.43-20.73a4.17,4.17,0,0,0-3.43-6.35Z"/><path class="cls-1" d="M137.49,147.91a4.17,4.17,0,0,0-4.1,4.23h0v29a4.16,4.16,0,1,0,8.33.12s0-.08,0-.12v-29a4.17,4.17,0,0,0-4.1-4.23Z"/><path class="cls-1" d="M125,156.25a4.17,4.17,0,0,0-1.72,7.92l24.88,12.44a4.17,4.17,0,0,0,3.94-7.34l-.23-.11L127,156.72A4.16,4.16,0,0,0,125,156.25Z"/><path class="cls-1" d="M150,156.25a4.17,4.17,0,0,0-1.88.46l-24.88,12.44a4.17,4.17,0,0,0,3.49,7.57l.23-.11,24.88-12.44a4.17,4.17,0,0,0-1.84-7.92Z"/><path class="cls-1" d="M179.3,152.09a4.16,4.16,0,0,0-3.71,2.07l-12.43,20.73a4.17,4.17,0,1,0,7.09,4.38l.05-.09,12.43-20.73a4.17,4.17,0,0,0-3.43-6.35Z"/><path class="cls-1" d="M20.9,14.59a4.17,4.17,0,0,0-4.1,4.23h0v29a4.16,4.16,0,1,0,8.33.12s0-.08,0-.12v-29A4.17,4.17,0,0,0,21,14.59Z"/><path class="cls-1" d="M8.38,22.93a4.17,4.17,0,0,0-1.72,7.92L31.54,43.29a4.17,4.17,0,0,0,3.92-7.35l-.2-.1L10.38,23.4a4.16,4.16,0,0,0-2-.46Z"/><path class="cls-1" d="M33.42,22.93a4.16,4.16,0,0,0-1.88.46L6.66,35.84a4.17,4.17,0,0,0,3.51,7.56l.2-.1L35.26,30.85a4.17,4.17,0,0,0-1.84-7.92Z"/><path class="cls-1" d="M66.87,18.77a4.16,4.16,0,0,0-3.71,2.07L50.73,41.57A4.17,4.17,0,1,0,57.81,46l.06-.11L70.3,25.12a4.17,4.17,0,0,0-3.43-6.36Z"/><path class="cls-1" d="M100,14.59a4.17,4.17,0,0,0-4.1,4.23h0v29a4.16,4.16,0,1,0,8.33.12s0-.08,0-.12v-29a4.17,4.17,0,0,0-4.1-4.23Z"/><path class="cls-1" d="M87.49,22.93a4.17,4.17,0,0,0-1.72,7.92l24.88,12.44a4.17,4.17,0,0,0,3.92-7.35l-.2-.1L89.5,23.4a4.16,4.16,0,0,0-2-.46Z"/><path class="cls-1" d="M112.54,22.93a4.16,4.16,0,0,0-1.88.46L85.78,35.84a4.17,4.17,0,0,0,3.51,7.56l.2-.1,24.88-12.44a4.17,4.17,0,0,0-1.84-7.92Z"/><path class="cls-1" d="M146,18.77a4.16,4.16,0,0,0-3.71,2.07L129.85,41.57A4.17,4.17,0,1,0,136.93,46l.06-.11,12.43-20.73A4.17,4.17,0,0,0,146,18.77Z"/><path class="cls-1" d="M179.13,14.59a4.17,4.17,0,0,0-4.1,4.23h0v29a4.16,4.16,0,1,0,8.33.12s0-.08,0-.12v-29a4.17,4.17,0,0,0-4.1-4.23Z"/><path class="cls-1" d="M166.61,22.93a4.17,4.17,0,0,0-1.72,7.92l24.88,12.44a4.17,4.17,0,0,0,3.92-7.35l-.2-.1L168.61,23.4a4.16,4.16,0,0,0-2-.46Z"/><path class="cls-1" d="M191.65,22.93a4.16,4.16,0,0,0-1.88.46L164.9,35.84a4.17,4.17,0,0,0,3.51,7.56l.2-.1,24.88-12.44a4.17,4.17,0,0,0-1.84-7.92Z"/><path class="cls-1" d="M29.39,64.59a4.16,4.16,0,0,0-3.71,2.07L13.26,87.39a4.17,4.17,0,1,0,7.08,4.39l.06-.11L32.83,70.95a4.17,4.17,0,0,0-3.43-6.35Z"/><path class="cls-1" d="M62.54,60.42a4.17,4.17,0,0,0-4.1,4.23h0v29a4.16,4.16,0,1,0,8.33.12s0-.08,0-.12v-29a4.17,4.17,0,0,0-4.1-4.23h-.13Z"/><path class="cls-1" d="M50,68.76a4.17,4.17,0,0,0-1.72,7.92L73.18,89.12a4.17,4.17,0,0,0,3.94-7.34l-.23-.11L52,69.22A4.16,4.16,0,0,0,50,68.76Z"/><path class="cls-1" d="M75.06,68.76a4.16,4.16,0,0,0-1.88.46L48.3,81.67a4.17,4.17,0,0,0,3.49,7.57l.23-.11L76.9,76.68a4.17,4.17,0,0,0-1.84-7.92Z"/><path class="cls-1" d="M108.51,64.59a4.16,4.16,0,0,0-3.71,2.07L92.37,87.39a4.17,4.17,0,1,0,7.08,4.39l.06-.11,12.43-20.73a4.17,4.17,0,0,0-3.43-6.36Z"/><path class="cls-1" d="M141.65,60.42a4.17,4.17,0,0,0-4.1,4.23h0v29a4.16,4.16,0,1,0,8.33.12s0-.08,0-.12v-29a4.17,4.17,0,0,0-4.1-4.23h-.13Z"/><path class="cls-1" d="M129.14,68.76a4.17,4.17,0,0,0-1.72,7.92L152.3,89.12a4.17,4.17,0,0,0,3.94-7.34l-.23-.11L131.14,69.22A4.16,4.16,0,0,0,129.14,68.76Z"/><path class="cls-1" d="M154.18,68.76a4.16,4.16,0,0,0-1.88.46L127.42,81.67a4.17,4.17,0,0,0,3.49,7.57l.23-.11L156,76.68a4.17,4.17,0,0,0-1.84-7.92Z"/><path class="cls-1" d="M187.63,64.59a4.16,4.16,0,0,0-3.71,2.07L171.49,87.39a4.17,4.17,0,1,0,7.08,4.39l.06-.11,12.43-20.73a4.17,4.17,0,0,0-3.43-6.36Z"/></svg>