<svg id="Layer_1" data-name="Layer 1" xmlns="http://www.w3.org/2000/svg" viewBox="0 0 200 200"><defs><style>.cls-1{fill:#fff;}</style></defs><title>weather</title><path class="cls-1" d="M29.55,106.22a4.15,4.15,0,0,0-4.08,4.21h0v28.91a4.15,4.15,0,1,0,8.29.12s0-.08,0-.12V110.43a4.15,4.15,0,0,0-4.08-4.21Z"/><path class="cls-1" d="M17.09,114.52a4.15,4.15,0,0,0-1.71,7.88l24.77,12.38a4.15,4.15,0,0,0,3.92-7.31l-.22-.11L19.08,115A4.14,4.14,0,0,0,17.09,114.52Z"/><path class="cls-1" d="M42,114.52a4.15,4.15,0,0,0-1.87.46L15.38,127.37a4.15,4.15,0,0,0,3.47,7.53l.22-.11L43.84,122.4A4.15,4.15,0,0,0,42,114.52Z"/><path class="cls-1" d="M100,106.22a4.15,4.15,0,0,0-4.08,4.21h0v28.91a4.15,4.15,0,1,0,8.29.12s0-.08,0-.12V110.43a4.15,4.15,0,0,0-4.08-4.21Z"/><path class="cls-1" d="M87.55,114.52a4.15,4.15,0,0,0-1.71,7.88l24.77,12.38a4.15,4.15,0,0,0,3.92-7.31l-.22-.11L89.54,115A4.14,4.14,0,0,0,87.55,114.52Z"/><path class="cls-1" d="M112.48,114.52a4.15,4.15,0,0,0-1.87.46L85.84,127.37a4.15,4.15,0,0,0,3.47,7.53l.22-.11,24.77-12.38a4.15,4.15,0,0,0-1.83-7.88Z"/><path class="cls-1" d="M170.48,106.22a4.15,4.15,0,0,0-4.08,4.21h0v28.91a4.15,4.15,0,1,0,8.29.12s0-.08,0-.12V110.43a4.15,4.15,0,0,0-4.08-4.21Z"/><path class="cls-1" d="M158,114.52a4.15,4.15,0,0,0-1.71,7.88l24.77,12.38a4.15,4.15,0,0,0,3.92-7.31l-.22-.11L160,115A4.14,4.14,0,0,0,158,114.52Z"/><path class="cls-1" d="M182.95,114.52a4.15,4.15,0,0,0-1.87.46l-24.77,12.39a4.15,4.15,0,0,0,3.48,7.53l.22-.11,24.77-12.38a4.15,4.15,0,0,0-1.83-7.88Z"/><path class="cls-1" d="M66.85,147.69a4.15,4.15,0,0,0-4.08,4.21h0v28.91a4.15,4.15,0,1,0,8.29.12s0-.08,0-.12V151.91A4.15,4.15,0,0,0,67,147.69Z"/><path class="cls-1" d="M54.39,156a4.15,4.15,0,0,0-1.71,7.88l24.77,12.38A4.15,4.15,0,0,0,81.37,169l-.22-.11L56.38,156.46A4.14,4.14,0,0,0,54.39,156Z"/><path class="cls-1" d="M79.32,156a4.15,4.15,0,0,0-1.87.46L52.68,168.84a4.15,4.15,0,0,0,3.47,7.53l.22-.11,24.77-12.38A4.15,4.15,0,0,0,79.32,156Z"/><path class="cls-1" d="M137.32,147.69a4.15,4.15,0,0,0-4.08,4.21h0v28.91a4.15,4.15,0,1,0,8.29.12s0-.08,0-.12V151.91a4.15,4.15,0,0,0-4.08-4.21Z"/><path class="cls-1" d="M124.86,156a4.15,4.15,0,0,0-1.71,7.88l24.77,12.38a4.15,4.15,0,0,0,3.92-7.31l-.22-.11-24.77-12.39A4.14,4.14,0,0,0,124.86,156Z"/><path class="cls-1" d="M149.78,156a4.15,4.15,0,0,0-1.87.46l-24.77,12.39a4.15,4.15,0,0,0,3.47,7.53l.22-.11,24.77-12.38a4.15,4.15,0,0,0-1.83-7.88Z"/><path class="cls-1" d="M21.26,15a4.15,4.15,0,0,0-4.08,4.21h0V48.1a4.15,4.15,0,1,0,8.29.12s0-.08,0-.12V19.19A4.15,4.15,0,0,0,21.39,15Z"/><path class="cls-1" d="M8.8,23.28a4.15,4.15,0,0,0-1.71,7.88L31.85,43.55a4.15,4.15,0,0,0,3.9-7.32l-.2-.1L10.79,23.74a4.14,4.14,0,0,0-2-.46Z"/><path class="cls-1" d="M33.72,23.28a4.14,4.14,0,0,0-1.87.46L7.09,36.13a4.15,4.15,0,0,0,3.5,7.52l.2-.1L35.55,31.16a4.15,4.15,0,0,0-1.83-7.88Z"/><path class="cls-1" d="M100,15a4.15,4.15,0,0,0-4.08,4.21h0V48.1a4.15,4.15,0,1,0,8.29.12s0-.08,0-.12V19.19A4.15,4.15,0,0,0,100.14,15Z"/><path class="cls-1" d="M87.55,23.28a4.15,4.15,0,0,0-1.71,7.88l24.77,12.39a4.15,4.15,0,0,0,3.9-7.32l-.2-.1L89.54,23.74a4.14,4.14,0,0,0-2-.46Z"/><path class="cls-1" d="M112.48,23.28a4.14,4.14,0,0,0-1.87.46L85.84,36.13a4.15,4.15,0,0,0,3.5,7.52l.2-.1,24.77-12.39a4.15,4.15,0,0,0-1.83-7.88Z"/><path class="cls-1" d="M178.77,15a4.15,4.15,0,0,0-4.08,4.21h0V48.1a4.15,4.15,0,1,0,8.29.12s0-.08,0-.12V19.19A4.15,4.15,0,0,0,178.9,15Z"/><path class="cls-1" d="M166.31,23.28a4.15,4.15,0,0,0-1.71,7.88l24.77,12.39a4.15,4.15,0,0,0,3.9-7.32l-.2-.1L168.3,23.74a4.14,4.14,0,0,0-2-.46Z"/><path class="cls-1" d="M191.24,23.28a4.14,4.14,0,0,0-1.87.46L164.6,36.13a4.15,4.15,0,0,0,3.5,7.52l.2-.1,24.77-12.39a4.15,4.15,0,0,0-1.83-7.88Z"/><path class="cls-1" d="M62.71,60.6a4.15,4.15,0,0,0-4.08,4.21h0V93.72a4.15,4.15,0,1,0,8.29.12s0-.08,0-.12V64.81a4.15,4.15,0,0,0-4.08-4.21h-.13Z"/><path class="cls-1" d="M50.25,68.9a4.15,4.15,0,0,0-1.71,7.88L73.3,89.17a4.15,4.15,0,0,0,3.92-7.31L77,81.75,52.24,69.36A4.14,4.14,0,0,0,50.25,68.9Z"/><path class="cls-1" d="M75.17,68.9a4.14,4.14,0,0,0-1.87.46L48.54,81.75A4.15,4.15,0,0,0,52,89.28l.22-.11L77,76.78a4.15,4.15,0,0,0-1.83-7.88Z"/><path class="cls-1" d="M141.46,60.6a4.15,4.15,0,0,0-4.08,4.21h0V93.72a4.15,4.15,0,1,0,8.29.12s0-.08,0-.12V64.81a4.15,4.15,0,0,0-4.08-4.21h-.13Z"/><path class="cls-1" d="M129,68.9a4.15,4.15,0,0,0-1.71,7.88l24.77,12.38A4.15,4.15,0,0,0,156,81.86l-.22-.11L131,69.36A4.14,4.14,0,0,0,129,68.9Z"/><path class="cls-1" d="M153.93,68.9a4.14,4.14,0,0,0-1.87.46L127.29,81.75a4.15,4.15,0,0,0,3.48,7.53l.22-.11,24.77-12.38a4.15,4.15,0,0,0-1.83-7.88Z"/></svg>