<svg id="Layer_1" data-name="Layer 1" xmlns="http://www.w3.org/2000/svg" viewBox="0 0 200 200"><defs><style>.cls-1{fill:#fff;}</style></defs><title>weather</title><path class="cls-1" d="M99.94,4.38a4,4,0,0,0-3.92,4h0V191.58a4,4,0,0,0,8,.11s0-.08,0-.11V8.42a4,4,0,0,0-3.92-4h-.12Z"/><path class="cls-1" d="M72.25,8.37a4,4,0,0,0-2.41,7.25L97.7,35.51a4,4,0,0,0,4.64,0l27.86-19.89a4,4,0,1,0-4.64-6.48h0L100,27.37,74.48,9.14A4,4,0,0,0,72.25,8.37Z"/><path class="cls-1" d="M100.08,163.75a4,4,0,0,0-2.4.74L69.8,184.41a4,4,0,1,0,4.64,6.49L100,172.64l25.56,18.25a4,4,0,1,0,4.64-6.49l-27.88-19.91A4,4,0,0,0,100.08,163.75Z"/><path class="cls-1" d="M179.75,48.21a4,4,0,0,0-2.16.6L18.31,144.37a4,4,0,1,0,4,6.88l.09-.05L181.68,55.64a4,4,0,0,0-1.94-7.43Z"/><path class="cls-1" d="M12.47,115.94a4,4,0,0,0-1.67,7.66L40,136.46l-3.09,30.86a4,4,0,1,0,7.93.83v0l3.37-33.73a4,4,0,0,0-2.36-4L14,116.3a4,4,0,0,0-1.54-.36Z"/><path class="cls-1" d="M159.1,28.29a4,4,0,0,0-3.91,3.64l-3.37,33.7a4,4,0,0,0,2.36,4L186,83.7a4,4,0,0,0,3.32-7.25l-.1,0L160,63.56l3.09-30.83a4,4,0,0,0-4-4.44Z"/><path class="cls-1" d="M20.14,48.21a4,4,0,0,0-1.82,7.42L177.59,151.2a4,4,0,0,0,4.19-6.78l-.09-.05L22.42,48.8A4,4,0,0,0,20.14,48.21Z"/><path class="cls-1" d="M40.78,28.29a4,4,0,0,0-3.92,4c0,.13,0,.26,0,.39L40,63.56,10.79,76.41a4,4,0,0,0,3.1,7.34L14,83.7l31.82-14a4,4,0,0,0,2.36-4l-3.37-33.7A4,4,0,0,0,40.78,28.29Z"/><path class="cls-1" d="M187.42,115.9a4,4,0,0,0-1.42.36l-31.81,14a4,4,0,0,0-2.36,4l3.37,33.73a4,4,0,1,0,7.93-.76v0L160,136.42l29.18-12.87a4,4,0,0,0-1.79-7.65Z"/></svg>