<svg id="Layer_1" data-name="Layer 1" xmlns="http://www.w3.org/2000/svg" viewBox="0 0 200 200"><defs><style>.cls-1{font-size:22px;fill:#231f20;font-family:MyriadPro-Regular, Myriad Pro;}.cls-2{fill:#fff;}</style></defs><title>weather</title><text class="cls-1" transform="translate(62.58 -29.6)">clear</text><path class="cls-2" d="M112.43,131.75a4,4,0,0,0-3.32,1.63l-23.8,31.72a4,4,0,0,0,3.83,6.29L103.47,169,89.22,188.92a4,4,0,0,0,6.33,4.8l.13-.19,19.83-27.71a4,4,0,0,0-3.88-6.22l-14,2.33,17.85-23.8a4,4,0,0,0-3-6.39Z"/><path class="cls-2" d="M114.82,7.08c15.08,5.59,26,18.25,30.53,33.32,1.5,0,2.91-.16,4.27-.25h0a43.49,43.49,0,0,1,13,2.48,49.76,49.76,0,0,1-13.32,96.55c-20.45.86-41.18.38-58.81.37a39.83,39.83,0,0,1-35.25-25.1,38.16,38.16,0,0,1-1.89-6.67H42.83A39.88,39.88,0,0,1,7.67,81.66,41,41,0,0,1,17,38.46C27.66,27.76,43.13,26.41,56.82,31,66.37,15.13,82.91,4.55,100.5,4.67a46.19,46.19,0,0,1,14.32,2.42Zm-13.24,5.36h-.09c-15.32-.57-30.91,9.27-39.12,24.34a4,4,0,0,1-.75,1l-.63.6a4,4,0,0,1-4.25.81c-12-4.92-25.3-4-34.13,4.89a33.1,33.1,0,0,0-7.48,34.83A31.86,31.86,0,0,0,43.21,99.81h9.47s0-.08,0-.12c0-1.17.11-2.34.25-3.5L53,96a38.49,38.49,0,0,1,2.92-10.74A40.89,40.89,0,0,1,64.62,72.7c10.73-10.28,26.13-11.54,39.8-7.15A55,55,0,0,1,129,44.37a61.81,61.81,0,0,1,8.23-2.78c-4-12.42-12.87-22.51-25.16-27.07a33.82,33.82,0,0,0-10.47-2.08ZM149.4,48.1h-.06a37.28,37.28,0,0,0-6.1.3,1.19,1.19,0,0,1-.3.1,40.29,40.29,0,0,0-9.34,2.42A48.39,48.39,0,0,0,110,71.43a4,4,0,0,1-.76,1l-.56.51-.06.06-.23.19-.26.19a.38.38,0,0,1-.1.07l0,0-.27.15-.29.13s-.08,0-.12,0a.73.73,0,0,1-.19.06.59.59,0,0,1-.17.06,1.4,1.4,0,0,1-.28.06h0a4,4,0,0,1-2.35-.15C93,69.4,80.56,70,71.79,77q-.88.7-1.7,1.5a.48.48,0,0,1-.07.08c-6.34,6.17-9.13,14.13-9.33,22.7,0,.65,0,1.3.07,2a30.38,30.38,0,0,0,1.92,8.33,31.83,31.83,0,0,0,28.18,20h56.26c.12,0,.25,0,.37,0A42,42,0,0,0,160,50.12a35.4,35.4,0,0,0-10.56-2Z"/></svg>