<svg id="Layer_1" data-name="Layer 1" xmlns="http://www.w3.org/2000/svg" viewBox="0 0 200 200"><defs><style>.cls-1{fill:#fff;}</style></defs><title>weather</title><path class="cls-1" d="M153.81,31.22a4.36,4.36,0,0,0-.56.05h0a4.35,4.35,0,0,0-1.38.47,39.2,39.2,0,0,0-32.22,38.42q0,.12,0,.24c0,.11,0,.22,0,.33a4.35,4.35,0,0,0,2.48,3.66,41.29,41.29,0,0,1,23,30.19,4.35,4.35,0,0,0,3.09,3.43,39.08,39.08,0,0,0,10.66,1.49h0A39.16,39.16,0,0,0,193,89.39,4.35,4.35,0,0,0,188.55,83a30.34,30.34,0,0,1-4.26.35h0A30.64,30.64,0,0,1,157.7,37.69a4.35,4.35,0,0,0-3.88-6.46Zm-7.39,11.36a39.45,39.45,0,0,0-1.34,10.09c0,20,15.23,36,34.55,38.4-5.63,5.64-12.62,9.72-20.79,9.73a30.38,30.38,0,0,1-6.14-.86,49.63,49.63,0,0,0-24-31.64A30.14,30.14,0,0,1,146.42,42.58Z"/><path class="cls-1" d="M106.7,61.67a4.35,4.35,0,0,0-1.38.18c-18.15-.11-35.21,10.47-45.15,26.41C46,83.66,30,85,18.94,95.81a40.81,40.81,0,0,0-9.7,43.83A41.33,41.33,0,0,0,45.77,166h58.87a4.35,4.35,0,0,0,1.85-.42,51.58,51.58,0,0,0,47.29-43.8c3.84-24.89-10.25-49.13-33.6-57.55a44.54,44.54,0,0,0-13.49-2.61Zm-.31,8.71h0a35.7,35.7,0,0,1,10.81,2.09c19.38,7,31.18,27.15,28,48s-20.3,36.14-40.7,36.81l-.43,0H46.17a32.58,32.58,0,0,1-28.8-20.81A32,32,0,0,1,25,102.06c9-8.77,22.68-9.77,35.05-4.88h.05l.36.13.29.07a4.35,4.35,0,0,0,.57.1h.82a4.36,4.36,0,0,0,2-.74l.34-.26.17-.15.15-.14.49-.46a4.35,4.35,0,0,0,.82-1c8.41-15,24.46-24.87,40.23-24.3Z"/></svg>