<svg id="Layer_1" data-name="Layer 1" xmlns="http://www.w3.org/2000/svg" viewBox="0 0 200 200"><defs><style>.cls-1{fill:#fff;}</style></defs><title>weather</title><path class="cls-1" d="M96.1,67.52a4.4,4.4,0,0,0-1.24.16c-16.36-.1-31.73,9.43-40.69,23.8C41.41,87.34,27,88.55,17,98.29a36.78,36.78,0,0,0-8.74,39.5,37.25,37.25,0,0,0,32.92,23.79c21.09,0,39.95-.1,55.23-.21,22.78-1.12,38.76-17.87,42.12-39.64C142,99.3,129.3,77.45,108.26,69.87A40.15,40.15,0,0,0,96.1,67.52Zm-.28,7.85h0a32.17,32.17,0,0,1,9.75,1.88c17.47,6.29,28.1,24.46,25.19,43.28S112.49,153.1,94.1,153.71c-17.47.08-35,0-52.55,0a29.37,29.37,0,0,1-26-18.76,28.87,28.87,0,0,1,6.88-31.07c8.12-7.9,20.33-8.53,31.59-4.39a4.17,4.17,0,0,0,4.75-1.34c11.19-17,23.86-23,37-22.84Z"/><path class="cls-1" d="M133.52,55.84a29.75,29.75,0,0,0-25.28,17.68c-2.49,4.9,5.18,8.31,7.18,3.19a21.86,21.86,0,0,1,26.83-12.18,23.52,23.52,0,0,1,16.18,25.94,23,23,0,0,1-22.61,20.15c-5.32-.07-5.31,7.92,0,7.84,15.3,0,28.24-11.56,30.4-26.9A31.4,31.4,0,0,0,144.54,57a29.94,29.94,0,0,0-11-1.19Z"/><path class="cls-1" d="M135.13,28.31a3.92,3.92,0,0,0-3.86,4V43.93a3.92,3.92,0,1,0,7.84.11s0-.07,0-.11V32.29a3.92,3.92,0,0,0-3.87-4Z"/><path class="cls-1" d="M174.27,44a3.91,3.91,0,0,0-2.69,1.19l-7.75,7.75a3.91,3.91,0,0,0,5.42,5.65l.11-.11,7.75-7.75A3.92,3.92,0,0,0,174.27,44Z"/><path class="cls-1" d="M166.54,114.55a3.92,3.92,0,0,0-2.73,6.73l7.75,7.75a3.92,3.92,0,1,0,5.65-5.43l-.11-.11-7.75-7.75A3.92,3.92,0,0,0,166.54,114.55Z"/><path class="cls-1" d="M178.36,79.27a3.92,3.92,0,0,0-.12,7.84H190a3.92,3.92,0,0,0,.12-7.84H178.36Z"/><path class="cls-1" d="M96,44a3.92,3.92,0,0,0-2.73,6.73L101,58.47A3.92,3.92,0,1,0,106.65,53l-.1-.1-7.75-7.75A3.91,3.91,0,0,0,96,44Z"/></svg>