<svg id="Layer_1" data-name="Layer 1" xmlns="http://www.w3.org/2000/svg" viewBox="0 0 200 200"><defs><style>.cls-1{fill:#fff;}</style></defs><title>weather</title><path class="cls-1" d="M29.15,106.25a4.17,4.17,0,0,0-4.1,4.23h0v29a4.16,4.16,0,1,0,8.33.12s0-.08,0-.12v-29a4.17,4.17,0,0,0-4.1-4.23Z"/><path class="cls-1" d="M16.63,114.59a4.17,4.17,0,0,0-1.72,7.92l24.88,12.44a4.17,4.17,0,0,0,3.94-7.34l-.23-.11L18.63,115.05A4.16,4.16,0,0,0,16.63,114.59Z"/><path class="cls-1" d="M41.67,114.59a4.17,4.17,0,0,0-1.88.46L14.91,127.5a4.17,4.17,0,0,0,3.49,7.57l.23-.11,24.88-12.44a4.17,4.17,0,0,0-1.84-7.92Z"/><path class="cls-1" d="M99.94,106.25a4.17,4.17,0,0,0-4.1,4.23h0v29a4.16,4.16,0,1,0,8.33.12s0-.08,0-.12v-29a4.17,4.17,0,0,0-4.1-4.23Z"/><path class="cls-1" d="M87.42,114.59a4.17,4.17,0,0,0-1.72,7.92l24.88,12.44a4.17,4.17,0,0,0,3.94-7.34l-.23-.11L89.42,115.05A4.16,4.16,0,0,0,87.42,114.59Z"/><path class="cls-1" d="M112.46,114.59a4.17,4.17,0,0,0-1.88.46L85.7,127.5a4.17,4.17,0,0,0,3.49,7.57l.23-.11,24.88-12.44a4.17,4.17,0,0,0-1.84-7.92Z"/><path class="cls-1" d="M170.72,106.25a4.17,4.17,0,0,0-4.1,4.23h0v29a4.16,4.16,0,1,0,8.33.12s0-.08,0-.12v-29a4.17,4.17,0,0,0-4.1-4.23Z"/><path class="cls-1" d="M158.21,114.59a4.17,4.17,0,0,0-1.72,7.92l24.88,12.44a4.17,4.17,0,0,0,3.94-7.34l-.23-.11-24.88-12.44A4.16,4.16,0,0,0,158.21,114.59Z"/><path class="cls-1" d="M183.25,114.59a4.17,4.17,0,0,0-1.88.46L156.49,127.5a4.17,4.17,0,0,0,3.49,7.57l.23-.11,24.88-12.44a4.17,4.17,0,0,0-1.84-7.92Z"/><path class="cls-1" d="M66.62,147.91a4.17,4.17,0,0,0-4.1,4.23h0v29a4.16,4.16,0,1,0,8.33.12s0-.08,0-.12v-29a4.17,4.17,0,0,0-4.1-4.23Z"/><path class="cls-1" d="M54.11,156.25a4.17,4.17,0,0,0-1.72,7.92l24.88,12.44a4.17,4.17,0,0,0,3.94-7.34l-.23-.11L56.11,156.72A4.16,4.16,0,0,0,54.11,156.25Z"/><path class="cls-1" d="M79.15,156.25a4.17,4.17,0,0,0-1.88.46L52.39,169.16a4.17,4.17,0,0,0,3.49,7.57l.23-.11L81,164.17a4.17,4.17,0,0,0-1.84-7.92Z"/><path class="cls-1" d="M137.41,147.91a4.17,4.17,0,0,0-4.1,4.23h0v29a4.16,4.16,0,1,0,8.33.12s0-.08,0-.12v-29a4.17,4.17,0,0,0-4.1-4.23Z"/><path class="cls-1" d="M124.89,156.25a4.17,4.17,0,0,0-1.72,7.92l24.88,12.44a4.17,4.17,0,0,0,3.94-7.34l-.23-.11L126.9,156.72A4.16,4.16,0,0,0,124.89,156.25Z"/><path class="cls-1" d="M149.94,156.25a4.17,4.17,0,0,0-1.88.46l-24.88,12.44a4.17,4.17,0,0,0,3.49,7.57l.23-.11,24.88-12.44a4.17,4.17,0,0,0-1.84-7.92Z"/><path class="cls-1" d="M20.82,14.59a4.17,4.17,0,0,0-4.1,4.23h0v29A4.16,4.16,0,1,0,25,48s0-.08,0-.12v-29a4.17,4.17,0,0,0-4.1-4.23Z"/><path class="cls-1" d="M8.3,22.93a4.17,4.17,0,0,0-1.72,7.92L31.46,43.29a4.17,4.17,0,0,0,3.92-7.35l-.2-.1L10.3,23.4a4.16,4.16,0,0,0-2-.46Z"/><path class="cls-1" d="M33.34,22.93a4.16,4.16,0,0,0-1.88.46L6.59,35.84a4.17,4.17,0,0,0,3.51,7.56l.2-.1L35.18,30.85a4.17,4.17,0,0,0-1.84-7.92Z"/><path class="cls-1" d="M99.94,14.59a4.17,4.17,0,0,0-4.1,4.23h0v29a4.16,4.16,0,1,0,8.33.12s0-.08,0-.12v-29a4.17,4.17,0,0,0-4.1-4.23Z"/><path class="cls-1" d="M87.42,22.93a4.17,4.17,0,0,0-1.72,7.92l24.88,12.44a4.17,4.17,0,0,0,3.92-7.35l-.2-.1L89.42,23.4a4.16,4.16,0,0,0-2-.46Z"/><path class="cls-1" d="M112.46,22.93a4.16,4.16,0,0,0-1.88.46L85.7,35.84a4.17,4.17,0,0,0,3.51,7.56l.2-.1L114.3,30.85a4.17,4.17,0,0,0-1.84-7.92Z"/><path class="cls-1" d="M179.05,14.59a4.17,4.17,0,0,0-4.1,4.23h0v29a4.16,4.16,0,1,0,8.33.12s0-.08,0-.12v-29a4.17,4.17,0,0,0-4.1-4.23Z"/><path class="cls-1" d="M166.53,22.93a4.17,4.17,0,0,0-1.72,7.92L189.7,43.29a4.17,4.17,0,0,0,3.92-7.35l-.2-.1L168.54,23.4a4.16,4.16,0,0,0-2-.46Z"/><path class="cls-1" d="M191.58,22.93a4.16,4.16,0,0,0-1.88.46L164.82,35.84a4.17,4.17,0,0,0,3.51,7.56l.2-.1,24.88-12.44a4.17,4.17,0,0,0-1.84-7.92Z"/><path class="cls-1" d="M62.46,60.42a4.17,4.17,0,0,0-4.1,4.23h0v29a4.16,4.16,0,1,0,8.33.12s0-.08,0-.12v-29a4.17,4.17,0,0,0-4.1-4.23h-.13Z"/><path class="cls-1" d="M49.94,68.76a4.17,4.17,0,0,0-1.72,7.92L73.1,89.12A4.17,4.17,0,0,0,77,81.78l-.23-.11L51.94,69.22A4.16,4.16,0,0,0,49.94,68.76Z"/><path class="cls-1" d="M75,68.76a4.16,4.16,0,0,0-1.88.46L48.23,81.67a4.17,4.17,0,0,0,3.49,7.57l.23-.11L76.82,76.68A4.17,4.17,0,0,0,75,68.76Z"/><path class="cls-1" d="M141.58,60.42a4.17,4.17,0,0,0-4.1,4.23h0v29a4.16,4.16,0,1,0,8.33.12s0-.08,0-.12v-29a4.17,4.17,0,0,0-4.1-4.23h-.13Z"/><path class="cls-1" d="M129.06,68.76a4.17,4.17,0,0,0-1.72,7.92l24.88,12.44a4.17,4.17,0,0,0,3.94-7.34l-.23-.11L131.06,69.22A4.16,4.16,0,0,0,129.06,68.76Z"/><path class="cls-1" d="M154.1,68.76a4.16,4.16,0,0,0-1.88.46L127.34,81.67a4.17,4.17,0,0,0,3.49,7.57l.23-.11,24.88-12.44a4.17,4.17,0,0,0-1.84-7.92Z"/></svg>