<svg id="Layer_1" data-name="Layer 1" xmlns="http://www.w3.org/2000/svg" viewBox="0 0 200 200"><defs><style>.cls-1{font-size:22px;fill:#231f20;font-family:MyriadPro-Regular, Myriad Pro;}.cls-2{letter-spacing:-0.01em;}.cls-3{letter-spacing:0em;}.cls-4{fill:#fff;}</style></defs><title>weather</title><text class="cls-1" transform="translate(12.27 -29.6)">chan<tspan class="cls-2" x="44.88" y="0">c</tspan><tspan x="54.6" y="0">ets</tspan><tspan class="cls-2" x="81.62" y="0">t</tspan><tspan x="88.77" y="0">o</tspan><tspan class="cls-3" x="100.85" y="0">r</tspan><tspan x="108.13" y="0">ms</tspan></text><path class="cls-4" d="M99.83,47.74a52.1,52.1,0,1,0,52.1,52.1A52.16,52.16,0,0,0,99.83,47.74Zm0,8A44.08,44.08,0,1,1,55.75,99.84,44,44,0,0,1,99.83,55.76Z"/><path class="cls-4" d="M99.77,3.66a4,4,0,0,0-3.94,4.07h0V27.65a4,4,0,1,0,8,.11s0-.08,0-.11V7.73a4,4,0,0,0-3.94-4.07Z"/><path class="cls-4" d="M167.84,27.71a4,4,0,0,0-2.76,1.21l-16,15.94a4,4,0,0,0,5.56,5.78l.11-.11,16-15.94a4,4,0,0,0-2.91-6.88Z"/><path class="cls-4" d="M31.7,27.71a4,4,0,0,0-2.79,6.88l16,15.94A4,4,0,0,0,50.64,45l-.11-.11-16-15.94A4,4,0,0,0,31.7,27.71Z"/><path class="cls-4" d="M99.77,168A4,4,0,0,0,95.82,172v19.92a4,4,0,0,0,8,.11s0-.08,0-.11V172a4,4,0,0,0-4-4.06Z"/><path class="cls-4" d="M151.93,147.92a4,4,0,0,0-2.79,6.89l16,15.94a4,4,0,1,0,5.78-5.55l-.12-.12-16-15.94A4,4,0,0,0,151.93,147.92Z"/><path class="cls-4" d="M47.62,147.93a4,4,0,0,0-2.76,1.21l-16,15.94a4,4,0,0,0,5.55,5.78l.12-.12,16-15.94a4,4,0,0,0-2.91-6.88Z"/><path class="cls-4" d="M172,95.83a4,4,0,0,0-.11,8h20a4,4,0,0,0,.11-8H172Z"/><path class="cls-4" d="M7.71,95.83a4,4,0,1,0-.11,8h20a4,4,0,1,0,.11-8h-20Z"/></svg>