<svg id="Layer_1" data-name="Layer 1" xmlns="http://www.w3.org/2000/svg" viewBox="0 0 200 200"><defs><style>.cls-1{fill:#fff;}</style></defs><title>weather</title><path class="cls-1" d="M9.72,29.85a5,5,0,0,0-3,9,86.21,86.21,0,0,0,7.72,5.31c4.36,2.66,9.46,5.69,15.41,5.69s10-3.56,13.11-6,5.41-3.88,6.91-3.88,3.76,1.4,6.9,3.88,7.17,6,13.12,6,10-3.56,13.11-6,5.4-3.88,6.9-3.88,3.77,1.4,6.91,3.88,7.16,6,13.11,6,10-3.56,13.12-6,5.4-3.88,6.9-3.88,3.77,1.4,6.91,3.88,7.16,6,13.11,6,10-3.56,13.12-6,5.41-3.88,6.91-3.88,6.44,1.93,10.24,4.23A76.42,76.42,0,0,1,187,48.76,5,5,0,1,0,193.37,41l-.16-.12a85.86,85.86,0,0,0-7.74-5.31c-4.38-2.66-9.49-5.69-15.45-5.69s-10,3.56-13.11,6-5.41,3.88-6.91,3.88-3.76-1.4-6.9-3.88-7.17-6-13.12-6-10,3.56-13.11,6-5.41,3.88-6.91,3.88-3.76-1.4-6.9-3.88-7.17-6-13.12-6-10,3.56-13.11,6-5.4,3.88-6.9,3.88-3.77-1.4-6.91-3.88-7.16-6-13.11-6-10,3.56-13.12,6-5.4,3.88-6.9,3.88-6.41-1.93-10.2-4.23A76.53,76.53,0,0,1,13,31,5,5,0,0,0,9.72,29.85Z"/><path class="cls-1" d="M9.72,59.92a5,5,0,0,0-3,9,86.21,86.21,0,0,0,7.72,5.31c4.36,2.66,9.46,5.69,15.41,5.69s10-3.56,13.11-6S48.41,70,49.91,70s3.76,1.4,6.9,3.88,7.17,6,13.12,6,10-3.56,13.11-6S88.44,70,89.94,70s3.77,1.4,6.91,3.88,7.16,6,13.11,6,10-3.56,13.12-6S128.48,70,130,70s3.77,1.4,6.91,3.88,7.16,6,13.11,6,10-3.56,13.12-6S168.53,70,170,70s6.44,1.93,10.24,4.23A76.46,76.46,0,0,1,187,78.82a5,5,0,1,0,6.36-7.74l-.16-.12a85.86,85.86,0,0,0-7.74-5.31C181.09,63,176,60,170,60s-10,3.56-13.11,6-5.41,3.88-6.91,3.88-3.76-1.4-6.9-3.88-7.17-6-13.12-6-10,3.56-13.11,6-5.41,3.88-6.91,3.88-3.76-1.4-6.9-3.88-7.17-6-13.12-6-10,3.56-13.11,6-5.4,3.88-6.9,3.88S66.16,68.48,63,66s-7.16-6-13.11-6-10,3.56-13.12,6-5.4,3.88-6.9,3.88S23.48,68,19.69,65.65A76.53,76.53,0,0,1,13,61,5,5,0,0,0,9.72,59.92Z"/><path class="cls-1" d="M9.72,90a5,5,0,0,0-3,9,86.17,86.17,0,0,0,7.72,5.31c4.36,2.66,9.46,5.69,15.41,5.69s10-3.56,13.11-6S48.41,100,49.91,100s3.76,1.4,6.9,3.88,7.17,6,13.12,6,10-3.56,13.11-6,5.4-3.88,6.9-3.88,3.77,1.4,6.91,3.88,7.16,6,13.11,6,10-3.56,13.12-6,5.4-3.88,6.9-3.88,3.77,1.4,6.91,3.88,7.16,6,13.11,6,10-3.56,13.12-6S168.53,100,170,100s6.44,1.93,10.24,4.23a76.46,76.46,0,0,1,6.74,4.62,5,5,0,1,0,6.36-7.74l-.16-.12a85.9,85.9,0,0,0-7.74-5.31C181.09,93.05,176,90,170,90s-10,3.56-13.11,6-5.41,3.88-6.91,3.88-3.76-1.4-6.9-3.88-7.17-6-13.12-6-10,3.56-13.11,6-5.41,3.88-6.91,3.88-3.76-1.4-6.9-3.88-7.17-6-13.12-6-10,3.56-13.11,6-5.4,3.88-6.9,3.88-3.77-1.4-6.91-3.88-7.16-6-13.11-6-10,3.56-13.12,6-5.4,3.88-6.9,3.88S23.48,98,19.69,95.71A76.65,76.65,0,0,1,13,91.09,5,5,0,0,0,9.72,90Z"/><path class="cls-1" d="M9.72,120a5,5,0,0,0-3,9,86.18,86.18,0,0,0,7.72,5.31C18.84,137,23.94,140,29.89,140s10-3.56,13.11-6,5.41-3.88,6.91-3.88,3.76,1.4,6.9,3.88,7.17,6,13.12,6,10-3.56,13.11-6,5.4-3.88,6.9-3.88,3.77,1.4,6.91,3.88,7.16,6,13.11,6,10-3.56,13.12-6,5.4-3.88,6.9-3.88,3.77,1.4,6.91,3.88,7.16,6,13.11,6,10-3.56,13.12-6,5.41-3.88,6.91-3.88,6.44,1.93,10.24,4.23a76.46,76.46,0,0,1,6.74,4.62,5,5,0,1,0,6.36-7.74l-.16-.12a85.9,85.9,0,0,0-7.74-5.31c-4.38-2.66-9.49-5.69-15.45-5.69s-10,3.56-13.11,6S151.5,130,150,130s-3.76-1.4-6.9-3.88-7.17-6-13.12-6-10,3.56-13.11,6S111.46,130,110,130s-3.76-1.4-6.9-3.88-7.17-6-13.12-6-10,3.56-13.11,6-5.4,3.88-6.9,3.88-3.77-1.4-6.91-3.88-7.16-6-13.11-6-10,3.56-13.12,6-5.4,3.88-6.9,3.88-6.41-1.93-10.2-4.23A76.65,76.65,0,0,1,13,121.16,5,5,0,0,0,9.72,120Z"/><path class="cls-1" d="M9.72,150.11a5,5,0,0,0-3,9,86.18,86.18,0,0,0,7.72,5.31c4.36,2.66,9.46,5.69,15.41,5.69s10-3.56,13.11-6,5.41-3.88,6.91-3.88,3.76,1.4,6.9,3.88,7.17,6,13.12,6,10-3.56,13.11-6,5.4-3.88,6.9-3.88,3.77,1.4,6.91,3.88,7.16,6,13.11,6,10-3.56,13.12-6,5.4-3.88,6.9-3.88,3.77,1.4,6.91,3.88,7.16,6,13.11,6,10-3.56,13.12-6,5.41-3.88,6.91-3.88,6.44,1.93,10.24,4.23A76.46,76.46,0,0,1,187,169a5,5,0,1,0,6.36-7.74l-.16-.12a85.9,85.9,0,0,0-7.74-5.31c-4.38-2.66-9.49-5.69-15.45-5.69s-10,3.56-13.11,6-5.41,3.88-6.91,3.88-3.76-1.4-6.9-3.88-7.17-6-13.12-6-10,3.56-13.11,6-5.41,3.88-6.91,3.88-3.76-1.4-6.9-3.88-7.17-6-13.12-6-10,3.56-13.11,6-5.4,3.88-6.9,3.88-3.77-1.4-6.91-3.88-7.16-6-13.11-6-10,3.56-13.12,6-5.4,3.88-6.9,3.88-6.41-1.93-10.2-4.23A76.65,76.65,0,0,1,13,151.22,5,5,0,0,0,9.72,150.11Z"/></svg>