<svg id="Layer_1" data-name="Layer 1" xmlns="http://www.w3.org/2000/svg" viewBox="0 0 200 200"><defs><style>.cls-1{fill:#fff;}</style></defs><title>weather</title><path class="cls-1" d="M125.54,46.68C107,46.5,89.48,57.51,79.42,74.07c-14.41-4.84-30.7-3.5-42,7.59a41.86,41.86,0,0,0,27.11,71.65h60.12a4,4,0,0,0,1.68-.38c24.19-1.59,44.25-20.08,48-44.86,3.89-25.46-10.35-50.26-34-58.88h0a44.59,44.59,0,0,0-14.86-2.52Zm.93,7.77h0a36.61,36.61,0,0,1,11.19,2.19c20,7.3,32.23,28.39,28.89,50.24s-21,37.79-42.06,38.49c-19.83.08-39.75,0-59.61,0A33.94,33.94,0,0,1,43,87.33c9.38-9.23,23.54-10.26,36.33-5.14a5.22,5.22,0,0,0,1.09.26,4.79,4.79,0,0,0,1.2-.08,1.32,1.32,0,0,0,.39-.1,4,4,0,0,0,.73-.31,5,5,0,0,0,2.21-2.17c8.91-15.54,25.23-26,41.55-25.37Z"/><path class="cls-1" d="M119.8,70.24a4,4,0,0,0-.1,7.91h71.09a4,4,0,0,0,.1-7.91H119.8Z"/><path class="cls-1" d="M9.21,97.93a4,4,0,0,0-.1,7.91H80.2a4,4,0,0,0,.1-7.91H9.21Z"/><path class="cls-1" d="M104,125.63a4,4,0,0,0-.14,7.91H175a4,4,0,0,0,.14-7.91H104Z"/></svg>