<svg id="Layer_1" data-name="Layer 1" xmlns="http://www.w3.org/2000/svg" viewBox="0 0 200 200"><defs><style>.cls-1{fill:#fff;}</style></defs><title>weather</title><path class="cls-1" d="M127.13,3.52c-19.7-.19-38.3,11.5-49,29.09-15.3-5.14-32.61-3.72-44.58,8.07a44.47,44.47,0,0,0,28.8,76.11c21.83-.13,44.35.06,64,0,26.47-.88,48.58-21.1,52.68-48s-11-53.39-36.1-62.54h0a41.51,41.51,0,0,0-15.79-2.67Zm1,8.25h0a38.88,38.88,0,0,1,11.89,2.32c21.26,7.75,34.23,30.16,30.68,53.37s-22.28,40.11-44.63,40.88c-20.95.13-42.24,0-63.36,0a36.05,36.05,0,0,1-23.3-61.7c10-9.82,25-10.91,38.62-5.45a4.19,4.19,0,0,0,4.44-.85l.69-.65a4.18,4.18,0,0,0,.79-1c9.23-16.64,26.8-27.58,44.13-26.94Z"/><path class="cls-1" d="M62.11,129.37a4.2,4.2,0,0,0-3.31,1.8s-2.18,3.15-4.38,6.93a61.56,61.56,0,0,0-3.1,6,14.72,14.72,0,0,0-1.66,6.26,12.59,12.59,0,0,0,25.17,0,14.73,14.73,0,0,0-1.66-6.26,61.56,61.56,0,0,0-3.1-6c-2.2-3.78-4.38-6.93-4.38-6.93A4.19,4.19,0,0,0,62.11,129.37Zm.14,12c.28.46.28.42.57.9a54.85,54.85,0,0,1,2.67,5.14,19.89,19.89,0,0,1,1,2.88,4.2,4.2,0,0,1-8.39,0,20,20,0,0,1,1-2.88,54.85,54.85,0,0,1,2.67-5.14C62,141.83,62,141.88,62.24,141.42Z"/><path class="cls-1" d="M137.62,129.37a4.2,4.2,0,0,0-3.31,1.8s-2.18,3.15-4.38,6.93a61.56,61.56,0,0,0-3.1,6,14.72,14.72,0,0,0-1.66,6.26,12.59,12.59,0,0,0,25.17,0,14.73,14.73,0,0,0-1.66-6.26,61.56,61.56,0,0,0-3.1-6c-2.2-3.78-4.38-6.93-4.38-6.93A4.19,4.19,0,0,0,137.62,129.37Zm.14,12c.28.46.28.42.57.9a54.85,54.85,0,0,1,2.67,5.14,19.89,19.89,0,0,1,1,2.88,4.2,4.2,0,0,1-8.39,0,20,20,0,0,1,1-2.88,54.85,54.85,0,0,1,2.67-5.14C137.47,141.83,137.48,141.88,137.76,141.42Z"/><path class="cls-1" d="M99.86,162.93a4.2,4.2,0,0,0-3.31,1.8s-2.18,3.15-4.38,6.93a61.56,61.56,0,0,0-3.1,6,14.72,14.72,0,0,0-1.66,6.26,12.59,12.59,0,1,0,25.17,0,14.72,14.72,0,0,0-1.66-6.26,61.56,61.56,0,0,0-3.1-6c-2.2-3.78-4.38-6.93-4.38-6.93A4.19,4.19,0,0,0,99.86,162.93Zm.14,12c.28.46.28.42.57.9a54.84,54.84,0,0,1,2.67,5.14,19.89,19.89,0,0,1,1,2.88,4.2,4.2,0,1,1-8.39,0,20,20,0,0,1,1-2.88,54.84,54.84,0,0,1,2.67-5.14C99.72,175.39,99.72,175.44,100,175Z"/></svg>